<?xml version="1.0" encoding="utf-8"?>
<!-- Generator: Adobe Illustrator 24.1.1, SVG Export Plug-In . SVG Version: 6.00 Build 0)  -->
<svg version="1.1" id="Layer_1" xmlns="http://www.w3.org/2000/svg" xmlns:xlink="http://www.w3.org/1999/xlink" x="0px" y="0px"
	 viewBox="0 0 1024 768" style="enable-background:new 0 0 1024 768;" xml:space="preserve">
<style type="text/css">
	.st0{fill:#E2E3E5;}
	.st1{fill:#FFFFFF;}
	.st2{fill:#CCCCCC;}
	.st3{fill:#B6B6B6;}
	.st4{fill:#808080;}
</style>
<g>
	<g transform="translate(1 1)">
		<path class="st0" d="M947,215.51c-5.08-32.66-81.27-58.05-174.16-58.05v384.61c92.89,0,168.36-25.4,174.16-58.05l0,0v-87.08v-3.63
			v-3.63v-79.82v-3.63v-3.63v-83.45V215.51L947,215.51z"/>
		<path class="st1" d="M576.81,215.51c5.08-32.66,81.28-58.05,174.16-58.05v384.61c-92.89,0-168.36-25.4-174.16-58.05l0,0v-87.08
			v-3.63v-3.63v-79.82v-3.63v-3.63v-83.45V215.51L576.81,215.51z"/>
		<path class="st2" d="M925.13,215.51c-5.08-32.66-81.28-58.05-174.16-58.05v384.61c92.89,0,168.36-25.4,174.16-58.05l0,0v-87.08
			v-3.63v-3.63v-79.82v-3.63v-3.63v-83.45V215.51L925.13,215.51z"/>
		<path class="st0" d="M903.26,215.25L903.26,215.25c-5.09-32.72-37.81-58.17-130.87-58.17s-168.68,25.45-174.5,58.17l0,0v3.64
			v83.61v3.64v3.64v79.98v3.64v3.64v87.25l0,0c5.09,32.72,81.43,58.17,174.5,58.17s125.06-25.45,130.87-58.17l0,0v-87.25v-3.64
			v-3.63v-79.98v-3.64v-3.64v-83.61V215.25L903.26,215.25z"/>
		<path class="st2" d="M750.97,382.76v86.82c92.89,0,168.36-25.4,174.16-58.05l0,0v-94.34c0,34.11-77.65,65.31-174.16,65.31"/>
		<path class="st1" d="M750.97,382.76v86.82c-92.89,0-168.36-25.4-174.16-58.05l0,0v-94.34c0,34.11,77.65,65.31,174.16,65.31"/>
		<path class="st0" d="M728.77,382.48L597.9,353.39v79.98c18.18,16,37.81,36.35,130.87,36.35s168.68-10.91,174.5-43.62l0,0v-75.62
			c0-3.64-4.36-5.09-6.54-2.91C875.64,370.84,808.02,382.48,728.77,382.48"/>
		<g>
			<path class="st3" d="M750.58,549.5c-95.15,0-172.14-26.87-180.85-62.46c-0.73-0.73-0.73-1.45-0.73-2.91V215.39
				c0-1.45,0-2.18,0.73-3.63c8.72-35.59,85.71-61.74,180.85-61.74s172.14,26.15,180.85,61.74c0.73,1.45,0.73,2.18,0.73,3.63v268.74
				c0,1.45,0,2.18-0.73,3.63C922.72,523.35,845.73,549.5,750.58,549.5z M583.84,482.01v0.73c4.36,25.43,72.67,52.32,167.13,52.32
				s162.77-26.89,167.13-52.32v-0.73v-264.5v-0.73c-4.36-25.43-72.67-52.32-167.13-52.32s-162.77,26.89-167.13,52.32v0.73V482.01z"
				/>
			<path class="st3" d="M750.58,476.91c-95.15,0-172.14-26.87-180.85-61.74c-0.73-1.45-0.73-2.18-0.73-3.63v-94.42
				c0-3.88,3.04-7.13,6.92-7.26c4.55-0.16,7.61,2.79,7.61,7.26c0,27.6,71.18,58.11,167.05,58.11c95.79,0,166.94-30.45,167.05-58.04
				c0.02-4.15,3.55-7.51,7.69-7.32c4.12,0.19,6.83,3.04,6.83,7.25v94.42c0,1.45,0,2.18-0.73,3.63
				C922.72,450.76,845.73,476.91,750.58,476.91z M583.84,409.38v0.73c4.36,25.43,72.67,52.32,167.13,52.32
				s162.77-26.89,167.13-52.32v-0.73v-63.95c-27.61,26.16-92.29,44.33-167.13,44.33s-139.52-18.17-167.13-44.33V409.38z
				 M925.44,411.56L925.44,411.56L925.44,411.56z"/>
			<path class="st3" d="M750.58,389.67c-95.15,0-172.14-26.87-180.85-61.74c-0.73-1.45-0.73-2.18-0.73-3.63v-94.42
				c0-3.88,3.04-7.13,6.92-7.26c4.55-0.16,7.61,2.79,7.61,7.26c0,27.6,71.18,58.11,167.05,58.11c95.79,0,166.94-30.45,167.05-58.04
				c0.02-4.15,3.55-7.51,7.69-7.32c4.12,0.19,6.83,3.04,6.83,7.25v94.42c0,1.45,0,2.18-0.73,3.63
				C922.72,363.52,845.73,389.67,750.58,389.67z M583.84,322.13v0.73c4.36,25.43,72.67,52.32,167.13,52.32
				s162.77-26.89,167.13-52.32v-0.73v-63.95c-27.61,26.16-92.29,44.33-167.13,44.33s-139.52-18.17-167.13-44.33V322.13z
				 M925.44,324.32L925.44,324.32L925.44,324.32z"/>
		</g>
	</g>
	<g>
	</g>
	<g>
	</g>
	<g>
	</g>
	<g>
	</g>
	<g>
	</g>
	<g>
	</g>
	<g>
	</g>
	<g>
	</g>
	<g>
	</g>
	<g>
	</g>
	<g>
	</g>
	<g>
	</g>
	<g>
	</g>
	<g>
	</g>
	<g>
	</g>
</g>
<g>
	<g id="layer1_1_" transform="translate(-362.5464,-406.21469)">
		<path id="path10000_1_" class="st4" d="M716.15,667.53c-52.76,0-105.2,21.72-142.51,59.03c-23.5,23.5-40.81,53.01-50.4,84.83
			c-23.06,4.35-44.84,15.61-61.45,32.22c-21.65,21.65-34.25,52.06-34.25,82.68c0,30.61,12.6,61.04,34.25,82.69
			c21.65,21.65,52.07,34.25,82.69,34.25h523.72c19.54,0,38.97-8.04,52.78-21.86c13.82-13.82,21.86-33.24,21.86-52.78
			s-8.04-38.96-21.86-52.77c-13.73-13.73-33-21.75-52.42-21.85c-3.79-35.4-19.83-69.48-45.03-94.68
			c-29.02-29.02-69.8-45.91-110.83-45.91c-9.96,0-19.9,1.02-29.67,2.94c-7.15-10.67-15.29-20.66-24.37-29.75
			C821.35,689.25,768.91,667.53,716.15,667.53L716.15,667.53z"/>
	</g>
</g>
</svg>
